<?xml version="1.0" encoding="UTF-8" standalone="no"?>
<svg
   xmlns:dc="http://purl.org/dc/elements/1.1/"
   xmlns:cc="http://creativecommons.org/ns#"
   xmlns:rdf="http://www.w3.org/1999/02/22-rdf-syntax-ns#"
   xmlns:svg="http://www.w3.org/2000/svg"
   xmlns="http://www.w3.org/2000/svg"
   height="100%"
   width="100%"
   version="1.1"
   id="svg3021"
   viewBox="0 0 1500 1500"
   style=" background:black"
   text-rendering="geometricPrecision"
   shape-rendering="geometricPrecision"
   image-rendering="optimizeQuality"
   fill-rule="evenodd"
   clip-rule="evenodd">
  <metadata
     id="metadata3035">
    <rdf:RDF>
      <cc:Work
         rdf:about="">
        <dc:format>image/svg+xml</dc:format>
        <dc:type
           rdf:resource="http://purl.org/dc/dcmitype/StillImage" />
        <dc:title></dc:title>
      </cc:Work>
    </rdf:RDF>
  </metadata>
  <defs
     id="defs3023">
    <style
       id="style3025"
       type="text/css">
    .str0 {stroke:#434242;stroke-width:10;stroke-linejoin:round}
    .fil0 {fill:url(#id0)}
   </style>
  </defs>
  <g
     transform="matrix(1.3284933,0,0,1.0760651,796.01586,436.09064)"
     id="g3090">
    <path
       d="m 28.42322,311.36613 q 58.360493,0 109.08733,-14.37249 50.72684,-14.3725 80.03021,-42.449 l 0,56.82149 q 0,23.06284 -25.36342,42.78325 -25.36342,19.72039 -68.9491,31.25182 -43.585681,11.53142 -94.80502,11.53142 -51.219331,0 -94.805005,-11.53142 -43.585665,-11.53143 -68.949115,-31.25182 -25.3634,-19.72041 -25.3634,-42.78325 l 0,-56.82149 q 29.30334,28.0765 80.030206,42.449 50.726828,14.37249 109.087314,14.37249 z m 0,256.69946 q 58.360493,0 109.08733,-14.3725 50.72684,-14.37249 80.03021,-42.449 l 0,56.8215 q 0,23.06283 -25.36342,42.78323 -25.36342,19.72041 -68.9491,31.25183 -43.585681,11.53143 -94.80502,11.53143 -51.219331,0 -94.805005,-11.53143 -43.585665,-11.53142 -68.949115,-31.25183 -25.3634,-19.7204 -25.3634,-42.78323 l 0,-56.8215 q 29.30334,28.07651 80.030206,42.449 50.726828,14.3725 109.087314,14.3725 z m 0,-128.34973 q 58.360493,0 109.08733,-14.37249 50.72684,-14.37249 80.03021,-42.44901 l 0,56.8215 q 0,23.06285 -25.36342,42.78323 -25.36342,19.72041 -68.9491,31.25184 -43.585681,11.53142 -94.80502,11.53142 -51.219331,0 -94.805005,-11.53142 -43.585665,-11.53143 -68.949115,-31.25184 -25.3634,-19.72038 -25.3634,-42.78323 l 0,-56.8215 q 29.30334,28.07652 80.030206,42.44901 50.726828,14.37249 109.087314,14.37249 z m 0,-385.049182 q 51.219339,0 94.80502,11.531423 43.58568,11.531411 68.9491,31.25182 25.36342,19.720409 25.36342,42.783239 l 0,42.78325 q 0,23.06283 -25.36342,42.78324 -25.36342,19.72041 -68.9491,31.25181 -43.585681,11.53143 -94.80502,11.53143 -51.219331,0 -94.805005,-11.53143 -43.585665,-11.5314 -68.949115,-31.25181 -25.3634,-19.72041 -25.3634,-42.78324 l 0,-42.78325 q 0,-23.06283 25.3634,-42.783239 25.36345,-19.720409 68.949115,-31.25182 43.585674,-11.531423 94.805005,-11.531423 z"
       id="path2997"
       style="fill:#336699;stroke:#000000;stroke-width:1.08854914" />
    <path
       class="fil0 str0"
       d="m -86.830301,397.36728 c 0,-95.21123 53.193939,-199.94358 124.11919,-261.83087 4.43283,89.26052 101.955041,142.81684 106.387871,249.92948 0,83.30983 -26.59697,130.91545 -97.522211,130.91545 4.43283,35.70421 35.46262,83.30983 62.059591,107.11264 8.86565,11.90141 -8.865661,23.8028 -17.731321,13.09154 C 55.020199,599.69117 38.175459,562.79682 19.557579,492.57853 2.712829,429.5011 1.826264,367.61379 1.826264,302.15605 -7.039393,367.61379 -20.337877,433.07152 6.259096,516.38134 -69.098989,540.18416 -86.830301,462.82502 -86.830301,397.36728 Z"
       id="Layer_x0020_1"
       style="fill:#98fc66;stroke:#000000;stroke-width:10.27198982;stroke-linejoin:round" />
  </g>
</svg>
