<?xml version="1.0" encoding="UTF-8" standalone="no"?>
<svg
   xmlns:dc="http://purl.org/dc/elements/1.1/"
   xmlns:cc="http://creativecommons.org/ns#"
   xmlns:rdf="http://www.w3.org/1999/02/22-rdf-syntax-ns#"
   xmlns:svg="http://www.w3.org/2000/svg"
   xmlns="http://www.w3.org/2000/svg"
   xmlns:sodipodi="http://sodipodi.sourceforge.net/DTD/sodipodi-0.dtd"
   xmlns:inkscape="http://www.inkscape.org/namespaces/inkscape"
   clip-rule="evenodd"
   fill-rule="evenodd"
   image-rendering="optimizeQuality"
   shape-rendering="geometricPrecision"
   text-rendering="geometricPrecision"
   viewBox="0 0 500 500"
   id="svg3021"
   version="1.1"
   inkscape:version="0.48.1 "
   width="100%"
   height="100%"
   sodipodi:docname="dabaschlak.svg"
   inkscape:export-filename="P:\dabaschlak\hilfe\dabaschlak16.png"
   inkscape:export-xdpi="2.1145375"
   inkscape:export-ydpi="2.1145375">
  <metadata
     id="metadata3035">
    <rdf:RDF>
      <cc:Work
         rdf:about="">
        <dc:format>image/svg+xml</dc:format>
        <dc:type
           rdf:resource="http://purl.org/dc/dcmitype/StillImage" />
        <dc:title></dc:title>
      </cc:Work>
    </rdf:RDF>
  </metadata>
  <sodipodi:namedview
     pagecolor="#ffffff"
     bordercolor="#666666"
     borderopacity="1"
     objecttolerance="10"
     gridtolerance="10"
     guidetolerance="10"
     inkscape:pageopacity="0"
     inkscape:pageshadow="2"
     inkscape:window-width="1920"
     inkscape:window-height="1137"
     id="namedview3033"
     showgrid="false"
     inkscape:zoom="0.482"
     inkscape:cx="2.0746888"
     inkscape:cy="8.3929619"
     inkscape:window-x="-8"
     inkscape:window-y="-8"
     inkscape:window-maximized="1"
     inkscape:current-layer="svg3021" />
  <defs
     id="defs3023">
    <style
       type="text/css"
       id="style3025">
    .str0 {stroke:#434242;stroke-width:10;stroke-linejoin:round}
    .fil0 {fill:url(#id0)}
   </style>
    <linearGradient
       gradientUnits="userSpaceOnUse"
       id="id0"
       x1="380.002"
       x2="120"
       y1="252.728"
       y2="252.728"
       gradientTransform="translate(-132.78009,199.17013)">
      <stop
         offset="0"
         stop-color="#008BFF"
         id="stop3028" />
      <stop
         offset="1"
         stop-color="#0af"
         id="stop3030" />
    </linearGradient>
  </defs>
  <rect
     style="fill:#000000;fill-opacity:1;stroke:#000000;stroke-width:1;stroke-linecap:square;stroke-miterlimit:4;stroke-opacity:1;stroke-dasharray:none"
     id="rect3082"
     width="680"
     height="680"
     x="-334.0249"
     y="33.195023" />
  <g
     id="g3090"
     transform="matrix(1.3284933,0,0,1.0760651,-31.784973,-7.8927643)">
    <path
       style="fill:#336699;stroke:#000000;stroke-width:1.08854914"
       id="path2997"
       d="m 28.42322,311.36613 q 58.360493,0 109.08733,-14.37249 50.72684,-14.3725 80.03021,-42.449 v 56.82149 q 0,23.06284 -25.36342,42.78325 -25.36342,19.72039 -68.9491,31.25182 -43.585681,11.53142 -94.80502,11.53142 -51.219331,0 -94.805005,-11.53142 -43.585665,-11.53143 -68.949115,-31.25182 -25.3634,-19.72041 -25.3634,-42.78325 v -56.82149 q 29.30334,28.0765 80.030206,42.449 50.726828,14.37249 109.087314,14.37249 z m 0,256.69946 q 58.360493,0 109.08733,-14.3725 50.72684,-14.37249 80.03021,-42.449 v 56.8215 q 0,23.06283 -25.36342,42.78323 -25.36342,19.72041 -68.9491,31.25183 -43.585681,11.53143 -94.80502,11.53143 -51.219331,0 -94.805005,-11.53143 -43.585665,-11.53142 -68.949115,-31.25183 -25.3634,-19.7204 -25.3634,-42.78323 v -56.8215 q 29.30334,28.07651 80.030206,42.449 50.726828,14.3725 109.087314,14.3725 z m 0,-128.34973 q 58.360493,0 109.08733,-14.37249 50.72684,-14.37249 80.03021,-42.44901 v 56.8215 q 0,23.06285 -25.36342,42.78323 -25.36342,19.72041 -68.9491,31.25184 -43.585681,11.53142 -94.80502,11.53142 -51.219331,0 -94.805005,-11.53142 -43.585665,-11.53143 -68.949115,-31.25184 -25.3634,-19.72038 -25.3634,-42.78323 v -56.8215 q 29.30334,28.07652 80.030206,42.44901 50.726828,14.37249 109.087314,14.37249 z m 0,-385.049182 q 51.219339,0 94.80502,11.531423 43.58568,11.531411 68.9491,31.25182 25.36342,19.720409 25.36342,42.783239 v 42.78325 q 0,23.06283 -25.36342,42.78324 -25.36342,19.72041 -68.9491,31.25181 -43.585681,11.53143 -94.80502,11.53143 -51.219331,0 -94.805005,-11.53143 -43.585665,-11.5314 -68.949115,-31.25181 -25.3634,-19.72041 -25.3634,-42.78324 v -42.78325 q 0,-23.06283 25.3634,-42.783239 25.36345,-19.720409 68.949115,-31.25182 43.585674,-11.531423 94.805005,-11.531423 z"
       inkscape:connector-curvature="0" />
    <path
       inkscape:connector-curvature="0"
       style="fill:#98fc66;stroke:#000000;stroke-width:10.27198982;stroke-linejoin:round"
       id="Layer_x0020_1"
       d="m -86.830301,397.36728 c 0,-95.21123 53.193939,-199.94358 124.11919,-261.83087 4.43283,89.26052 101.955041,142.81684 106.387871,249.92948 0,83.30983 -26.59697,130.91545 -97.522211,130.91545 4.43283,35.70421 35.46262,83.30983 62.059591,107.11264 8.86565,11.90141 -8.865661,23.8028 -17.731321,13.09154 C 55.020199,599.69117 38.175459,562.79682 19.557579,492.57853 2.712829,429.5011 1.826264,367.61379 1.826264,302.15605 -7.039393,367.61379 -20.337877,433.07152 6.259096,516.38134 -69.098989,540.18416 -86.830301,462.82502 -86.830301,397.36728 z"
       class="fil0 str0" />
  </g>
</svg>
